<?xml version="1.0" encoding="utf-8"?><svg xmlns="http://www.w3.org/2000/svg" width="250" height="250" preserveAspectRatio="xMidYMid" xmlns:xlink="http://www.w3.org/1999/xlink" style="margin-right:-2px;display:block;background-repeat-y:initial;background-repeat-x:initial;animation-play-state:paused" ><style type="text/css" style="animation-play-state:paused" >text {
    text-anchor: middle; font-size: 43px; opacity: 0;
  }</style>


<g style="transform-origin:125px 125px;transform:matrix(1.79167, 0, 0, 1.79167, 0, 0);animation-play-state:paused" ><g transform="translate(125,125)" style="transform:matrix(1, 0, 0, 1, 125, 125);animation-play-state:paused" ><g transform="translate(0,0)" style="transform:matrix(1, 0, 0, 1, 0, 0);animation-play-state:paused" ><g class="path" style="transform-origin:-58.57px -2.14368px;opacity:0.0932407;animation-timing-function:linear;animation-play-state:paused;animation-name:fade-bd7f9eeb-92e8-4426-bce2-21b3f840a87c;animation-iteration-count:infinite;animation-fill-mode:forwards;animation-duration:1.23457s;animation-delay:-0.795062s" ><path d="M10.97 0L9.05-5.88L3.58-5.88L1.70 0L0.29 0L5.66-16.80L6.94-16.80L12.41 0L10.97 0zM6.29-14.71L3.96-7.20L8.69-7.20L6.29-14.71" fill="#ee32af" stroke="none" stroke-width="none" transform="translate(-64.92001342773438,6.256322875976558)" style="transform:matrix(1, 0, 0, 1, -64.92, 6.25632);fill:rgb(238, 50, 175);animation-play-state:paused" ></path></g>
<g class="path" style="transform-origin:-46.31px 0.146323px;opacity:0.115036;animation-timing-function:linear;animation-play-state:paused;animation-name:fade-bd7f9eeb-92e8-4426-bce2-21b3f840a87c;animation-iteration-count:infinite;animation-fill-mode:forwards;animation-duration:1.23457s;animation-delay:-0.738272s" ><path d="M21.72 0L21.72-8.23L21.72-8.23Q21.72-9.70 20.87-10.36L20.87-10.36L20.87-10.36Q20.02-11.02 18.67-11.02L18.67-11.02L18.67-11.02Q17.86-11.02 17.02-10.79L17.02-10.79L17.02-10.79Q16.18-10.56 15.53-10.20L15.53-10.20L15.53 0L14.18 0L14.18-12.02L15.53-12.02L15.43-11.21L15.43-11.21Q16.01-11.71 16.90-11.96L16.90-11.96L16.90-11.96Q17.78-12.22 18.74-12.22L18.74-12.22L18.74-12.22Q20.06-12.22 21-11.78L21-11.78L21-11.78Q21.96-11.35 22.50-10.49L22.50-10.49L22.50-10.49Q23.04-9.62 23.04-8.30L23.04-8.30L23.04 0L21.72 0" fill="#ee32af" stroke="none" stroke-width="none" transform="translate(-64.92001342773438,6.256322875976558)" style="transform:matrix(1, 0, 0, 1, -64.92, 6.25632);fill:rgb(238, 50, 175);animation-play-state:paused" ></path></g>
<g class="path" style="transform-origin:-34.86px 2.65632px;opacity:0.140174;animation-timing-function:linear;animation-play-state:paused;animation-name:fade-bd7f9eeb-92e8-4426-bce2-21b3f840a87c;animation-iteration-count:infinite;animation-fill-mode:forwards;animation-duration:1.23457s;animation-delay:-0.681481s" ><path d="M31.66 4.01L31.66 4.01Q33.24 3.41 33.24 1.51L33.24 1.51L33.24-1.46L33.24-1.46Q32.23 0.29 30 0.29L30 0.29L30 0.29Q27.89 0.29 26.71-0.86L26.71-0.86L26.71-0.86Q25.54-2.02 25.54-4.22L25.54-4.22L25.54-7.80L25.54-7.80Q25.54-9.91 26.77-11.08L26.77-11.08L26.77-11.08Q28.01-12.24 30.10-12.24L30.10-12.24L30.10-12.24Q32.33-12.24 33.34-10.63L33.34-10.63L33.24-12.02L34.58-12.02L34.58 1.54L34.58 1.54Q34.58 2.98 33.98 3.79L33.98 3.79L33.98 3.79Q33.38 4.61 32.02 5.04L32.02 5.04L31.66 4.01zM33.24-8.06L33.24-8.06Q33.24-9.55 32.28-10.28L32.28-10.28L32.28-10.28Q31.32-11.02 30-11.02L30-11.02L30-11.02Q28.73-11.02 27.80-10.24L27.80-10.24L27.80-10.24Q26.88-9.46 26.88-7.68L26.88-7.68L26.88-4.01L26.88-4.01Q26.88-2.50 27.73-1.73L27.73-1.73L27.73-1.73Q28.58-0.96 30-0.96L30-0.96L30-0.96Q31.34-0.96 32.29-1.79L32.29-1.79L32.29-1.79Q33.24-2.62 33.24-4.15L33.24-4.15L33.24-8.06" fill="#ee32af" stroke="none" stroke-width="none" transform="translate(-64.92001342773438,6.256322875976558)" style="transform:matrix(1, 0, 0, 1, -64.92, 6.25632);fill:rgb(238, 50, 175);animation-play-state:paused" ></path></g>
<g class="path" style="transform-origin:-24.36px 0.281323px;opacity:0.169189;animation-timing-function:linear;animation-play-state:paused;animation-name:fade-bd7f9eeb-92e8-4426-bce2-21b3f840a87c;animation-iteration-count:infinite;animation-fill-mode:forwards;animation-duration:1.23457s;animation-delay:-0.624691s" ><path d="M44.28-0.84L44.28-0.84Q43.42-0.29 42.31 0L42.31 0L42.31 0Q41.21 0.29 40.10 0.29L40.10 0.29L40.10 0.29Q38.33 0.29 37.28-0.59L37.28-0.59L37.28-0.59Q36.24-1.46 36.24-3.22L36.24-3.22L36.24-8.14L36.24-8.14Q36.24-10.08 37.45-11.16L37.45-11.16L37.45-11.16Q38.66-12.24 40.66-12.24L40.66-12.24L40.66-12.24Q42.65-12.24 43.76-11.17L43.76-11.17L43.76-11.17Q44.88-10.10 44.88-8.21L44.88-8.21L44.88-5.09L37.58-4.68L37.58-3.22L37.58-3.22Q37.58-2.06 38.33-1.49L38.33-1.49L38.33-1.49Q39.07-0.91 40.27-0.91L40.27-0.91L40.27-0.91Q41.95-0.91 43.75-1.87L43.75-1.87L44.28-0.84zM43.54-8.38L43.54-8.38Q43.54-9.86 42.60-10.48L42.60-10.48L42.60-10.48Q41.66-11.09 40.63-11.09L40.63-11.09L40.63-11.09Q39.31-11.09 38.45-10.37L38.45-10.37L38.45-10.37Q37.58-9.65 37.58-8.11L37.58-8.11L37.58-6L43.54-6.29L43.54-8.38" fill="#ee32af" stroke="none" stroke-width="none" transform="translate(-64.92001342773438,6.256322875976558)" style="transform:matrix(1, 0, 0, 1, -64.92, 6.25632);fill:rgb(238, 50, 175);animation-play-state:paused" ></path></g>
<g class="path" style="transform-origin:-16.56px -2.14368px;opacity:0.202734;animation-timing-function:linear;animation-play-state:paused;animation-name:fade-bd7f9eeb-92e8-4426-bce2-21b3f840a87c;animation-iteration-count:infinite;animation-fill-mode:forwards;animation-duration:1.23457s;animation-delay:-0.567901s" ><path d="M47.69 0L47.69-16.80L49.03-16.80L49.03 0L47.69 0" fill="#ee32af" stroke="none" stroke-width="none" transform="translate(-64.92001342773438,6.256322875976558)" style="transform:matrix(1, 0, 0, 1, -64.92, 6.25632);fill:rgb(238, 50, 175);animation-play-state:paused" ></path></g>
<g class="path" style="transform-origin:-11.295px -9.97868px;opacity:0.241598;animation-timing-function:linear;animation-play-state:paused;animation-name:fade-bd7f9eeb-92e8-4426-bce2-21b3f840a87c;animation-iteration-count:infinite;animation-fill-mode:forwards;animation-duration:1.23457s;animation-delay:-0.511111s" ><path d="M53.64-15.43L53.64-15.43Q53.33-15.43 53.08-15.68L53.08-15.68L53.08-15.68Q52.82-15.94 52.82-16.25L52.82-16.25L52.82-16.25Q52.82-16.56 53.06-16.80L53.06-16.80L53.06-16.80Q53.30-17.04 53.64-17.04L53.64-17.04L53.64-17.04Q53.98-17.04 54.20-16.81L54.20-16.81L54.20-16.81Q54.43-16.58 54.43-16.25L54.43-16.25L54.43-16.25Q54.43-15.91 54.19-15.67L54.19-15.67L54.19-15.67Q53.95-15.43 53.64-15.43L53.64-15.43" fill="#ee32af" stroke="none" stroke-width="none" transform="translate(-64.92001342773438,6.256322875976558)" style="transform:matrix(1, 0, 0, 1, -64.92, 6.25632);fill:rgb(238, 50, 175);animation-play-state:paused" ></path></g>
<g class="path" style="transform-origin:-11.305px 0.246323px;opacity:0.286732;animation-timing-function:linear;animation-play-state:paused;animation-name:fade-bd7f9eeb-92e8-4426-bce2-21b3f840a87c;animation-iteration-count:infinite;animation-fill-mode:forwards;animation-duration:1.23457s;animation-delay:-0.454321s" ><path d="M52.94 0L52.94-12.02L54.29-12.02L54.29 0L52.94 0" fill="#ee32af" stroke="none" stroke-width="none" transform="translate(-64.92001342773438,6.256322875976558)" style="transform:matrix(1, 0, 0, 1, -64.92, 6.25632);fill:rgb(238, 50, 175);animation-play-state:paused" ></path></g>
<g class="path" style="transform-origin:-3.84001px 0.256323px;opacity:0.339267;animation-timing-function:linear;animation-play-state:paused;animation-name:fade-bd7f9eeb-92e8-4426-bce2-21b3f840a87c;animation-iteration-count:infinite;animation-fill-mode:forwards;animation-duration:1.23457s;animation-delay:-0.397531s" ><path d="M64.94-0.14L64.94-0.14Q63.46 0.24 62.06 0.24L62.06 0.24L62.06 0.24Q60.77 0.24 59.90-0.05L59.90-0.05L59.90-0.05Q58.49-0.53 57.85-1.52L57.85-1.52L57.85-1.52Q57.22-2.52 57.22-4.32L57.22-4.32L57.22-7.39L57.22-7.39Q57.22-9.77 58.46-11.00L58.46-11.00L58.46-11.00Q59.71-12.24 61.68-12.24L61.68-12.24L61.68-12.24Q63.24-12.24 64.90-11.47L64.90-11.47L64.51-10.49L64.51-10.49Q63.14-11.04 61.87-11.04L61.87-11.04L61.87-11.04Q60.38-11.04 59.47-10.19L59.47-10.19L59.47-10.19Q58.56-9.34 58.56-7.54L58.56-7.54L58.56-4.06L58.56-4.06Q58.56-2.40 59.56-1.66L59.56-1.66L59.56-1.66Q60.55-0.91 62.21-0.91L62.21-0.91L62.21-0.91Q63.29-0.91 64.66-1.22L64.66-1.22L64.94-0.14" fill="#ee32af" stroke="none" stroke-width="none" transform="translate(-64.92001342773438,6.256322875976558)" style="transform:matrix(1, 0, 0, 1, -64.92, 6.25632);fill:rgb(238, 50, 175);animation-play-state:paused" ></path></g>
<g class="path" style="transform-origin:1.67999px 5.46632px;opacity:0.4005;animation-timing-function:linear;animation-play-state:paused;animation-name:fade-bd7f9eeb-92e8-4426-bce2-21b3f840a87c;animation-iteration-count:infinite;animation-fill-mode:forwards;animation-duration:1.23457s;animation-delay:-0.340741s" ><path d="M66.60 0L66.60 0Q66.29 0 66.05-0.24L66.05-0.24L66.05-0.24Q65.81-0.48 65.81-0.79L65.81-0.79L65.81-0.79Q65.81-1.13 66.05-1.36L66.05-1.36L66.05-1.36Q66.29-1.58 66.60-1.58L66.60-1.58L66.60-1.58Q66.94-1.58 67.16-1.36L67.16-1.36L67.16-1.36Q67.39-1.13 67.39-0.79L67.39-0.79L67.39-0.79Q67.39-0.48 67.16-0.24L67.16-0.24L67.16-0.24Q66.94 0 66.60 0L66.60 0" fill="#ee32af" stroke="none" stroke-width="none" transform="translate(-64.92001342773438,6.256322875976558)" style="transform:matrix(1, 0, 0, 1, -64.92, 6.25632);fill:rgb(238, 50, 175);animation-play-state:paused" ></path></g>
<g class="path" style="transform-origin:11.81px -2.14368px;opacity:0.471826;animation-timing-function:linear;animation-play-state:paused;animation-name:fade-bd7f9eeb-92e8-4426-bce2-21b3f840a87c;animation-iteration-count:infinite;animation-fill-mode:forwards;animation-duration:1.23457s;animation-delay:-0.283951s" ><path d="M81.82 0L81.82-12.84L77.45 0L75.98 0L71.64-12.84L71.64 0L70.30 0L70.30-16.80L71.64-16.80L76.70-2.06L81.82-16.80L83.16-16.80L83.16 0L81.82 0" fill="#ee32af" stroke="none" stroke-width="none" transform="translate(-64.92001342773438,6.256322875976558)" style="transform:matrix(1, 0, 0, 1, -64.92, 6.25632);fill:rgb(238, 50, 175);animation-play-state:paused" ></path></g>
<g class="path" style="transform-origin:25.67px 0.276323px;opacity:0.554552;animation-timing-function:linear;animation-play-state:paused;animation-name:fade-bd7f9eeb-92e8-4426-bce2-21b3f840a87c;animation-iteration-count:infinite;animation-fill-mode:forwards;animation-duration:1.23457s;animation-delay:-0.22716s" ><path d="M95.21 0L95.21 0Q92.62 0.26 91.46 0.26L91.46 0.26L91.46 0.26Q88.94 0.26 87.46-0.67L87.46-0.67L87.46-0.67Q85.97-1.61 85.97-4.06L85.97-4.06L85.97-6.05L85.97-6.05Q85.97-8.42 87.62-9.24L87.62-9.24L87.62-9.24Q88.42-9.65 89.64-9.65L89.64-9.65L89.64-9.65Q90.77-9.65 91.92-9.28L91.92-9.28L91.92-9.28Q93.07-8.90 93.86-8.30L93.86-8.30L93.86-8.30Q93.86-9.62 93.10-10.40L93.10-10.40L93.10-10.40Q92.33-11.18 90.14-11.18L90.14-11.18L90.22-12.22L90.22-12.22Q92.52-12.22 93.61-11.48L93.61-11.48L93.61-11.48Q94.70-10.75 94.96-9.74L94.96-9.74L94.96-9.74Q95.21-8.74 95.21-7.15L95.21-7.15L95.21 0zM93.86-7.27L93.86-7.27Q92.88-7.73 91.76-8.06L91.76-8.06L91.76-8.06Q90.65-8.40 89.71-8.40L89.71-8.40L89.71-8.40Q87.29-8.40 87.29-5.98L87.29-5.98L87.29-3.89L87.29-3.89Q87.29-2.33 88.37-1.62L88.37-1.62L88.37-1.62Q89.45-0.91 91.44-0.91L91.44-0.91L91.44-0.91Q92.47-0.91 93.86-1.10L93.86-1.10L93.86-7.27" fill="#ee32af" stroke="none" stroke-width="none" transform="translate(-64.92001342773438,6.256322875976558)" style="transform:matrix(1, 0, 0, 1, -64.92, 6.25632);fill:rgb(238, 50, 175);animation-play-state:paused" ></path></g>
<g class="path" style="transform-origin:36.34px 0.281322px;opacity:0.649538;animation-timing-function:linear;animation-play-state:paused;animation-name:fade-bd7f9eeb-92e8-4426-bce2-21b3f840a87c;animation-iteration-count:infinite;animation-fill-mode:forwards;animation-duration:1.23457s;animation-delay:-0.17037s" ><path d="M98.21-3.05L98.21-3.05Q98.35-1.97 99.29-1.43L99.29-1.43L99.29-1.43Q100.22-0.89 101.38-0.89L101.38-0.89L101.38-0.89Q102.46-0.89 103.34-1.38L103.34-1.38L103.34-1.38Q104.23-1.87 104.23-2.98L104.23-2.98L104.23-2.98Q104.23-3.70 103.81-4.16L103.81-4.16L103.81-4.16Q103.39-4.63 102.77-4.92L102.77-4.92L102.77-4.92Q102.14-5.21 101.09-5.54L101.09-5.54L101.09-5.54Q99.91-5.93 99.17-6.26L99.17-6.26L99.17-6.26Q98.42-6.60 97.87-7.21L97.87-7.21L97.87-7.21Q97.32-7.82 97.22-8.76L97.22-8.76L97.20-9.05L97.20-9.05Q97.20-9.84 97.64-10.60L97.64-10.60L97.64-10.60Q98.09-11.35 99.01-11.83L99.01-11.83L99.01-11.83Q99.94-12.31 101.33-12.31L101.33-12.31L101.33-12.31Q102.10-12.31 102.68-12.16L102.68-12.16L102.68-12.16Q103.27-12 103.61-11.83L103.61-11.83L103.61-11.83Q103.94-11.66 104.02-11.62L104.02-11.62L103.56-10.51L103.56-10.51Q103.49-10.56 103.21-10.70L103.21-10.70L103.21-10.70Q102.94-10.85 102.43-10.99L102.43-10.99L102.43-10.99Q101.93-11.14 101.33-11.14L101.33-11.14L101.33-11.14Q100.18-11.14 99.36-10.60L99.36-10.60L99.36-10.60Q98.54-10.06 98.54-9.10L98.54-9.10L98.54-9.10Q98.54-8.18 99.29-7.70L99.29-7.70L99.29-7.70Q100.03-7.22 101.57-6.74L101.57-6.74L101.57-6.74Q102.86-6.31 103.66-5.93L103.66-5.93L103.66-5.93Q104.45-5.54 105.01-4.84L105.01-4.84L105.01-4.84Q105.58-4.13 105.58-3L105.58-3L105.58-3Q105.58-1.56 104.51-0.60L104.51-0.60L104.51-0.60Q103.44 0.36 101.38 0.36L101.38 0.36L101.38 0.36Q100.01 0.36 99.01-0.11L99.01-0.11L99.01-0.11Q98.02-0.58 97.50-1.34L97.50-1.34L97.50-1.34Q96.98-2.11 96.94-3.05L96.94-3.05L98.21-3.05" fill="#ee32af" stroke="none" stroke-width="none" transform="translate(-64.92001342773438,6.256322875976558)" style="transform:matrix(1, 0, 0, 1, -64.92, 6.25632);fill:rgb(238, 50, 175);animation-play-state:paused" ></path></g>
<g class="path" style="transform-origin:44.665px -1.98868px;opacity:0.756688;animation-timing-function:linear;animation-play-state:paused;animation-name:fade-bd7f9eeb-92e8-4426-bce2-21b3f840a87c;animation-iteration-count:infinite;animation-fill-mode:forwards;animation-duration:1.23457s;animation-delay:-0.11358s" ><path d="M110.02 0.31L110.02 0.31Q108.67-0.07 108.07-0.91L108.07-0.91L108.07-0.91Q107.47-1.75 107.47-3.17L107.47-3.17L107.47-16.80L108.82-16.80L108.82-12.02L111.70-12.02L111.12-10.75L108.82-10.75L108.82-3.17L108.82-3.17Q108.82-1.25 110.40-0.72L110.40-0.72L110.02 0.31" fill="#ee32af" stroke="none" stroke-width="none" transform="translate(-64.92001342773438,6.256322875976558)" style="transform:matrix(1, 0, 0, 1, -64.92, 6.25632);fill:rgb(238, 50, 175);animation-play-state:paused" ></path></g>
<g class="path" style="transform-origin:52.49px 0.281323px;opacity:0.874489;animation-timing-function:linear;animation-play-state:paused;animation-name:fade-bd7f9eeb-92e8-4426-bce2-21b3f840a87c;animation-iteration-count:infinite;animation-fill-mode:forwards;animation-duration:1.23457s;animation-delay:-0.0567901s" ><path d="M121.13-0.84L121.13-0.84Q120.26-0.29 119.16 0L119.16 0L119.16 0Q118.06 0.29 116.95 0.29L116.95 0.29L116.95 0.29Q115.18 0.29 114.13-0.59L114.13-0.59L114.13-0.59Q113.09-1.46 113.09-3.22L113.09-3.22L113.09-8.14L113.09-8.14Q113.09-10.08 114.30-11.16L114.30-11.16L114.30-11.16Q115.51-12.24 117.50-12.24L117.50-12.24L117.50-12.24Q119.50-12.24 120.61-11.17L120.61-11.17L120.61-11.17Q121.73-10.10 121.73-8.21L121.73-8.21L121.73-5.09L114.43-4.68L114.43-3.22L114.43-3.22Q114.43-2.06 115.18-1.49L115.18-1.49L115.18-1.49Q115.92-0.91 117.12-0.91L117.12-0.91L117.12-0.91Q118.80-0.91 120.60-1.87L120.60-1.87L121.13-0.84zM120.38-8.38L120.38-8.38Q120.38-9.86 119.45-10.48L119.45-10.48L119.45-10.48Q118.51-11.09 117.48-11.09L117.48-11.09L117.48-11.09Q116.16-11.09 115.30-10.37L115.30-10.37L115.30-10.37Q114.43-9.65 114.43-8.11L114.43-8.11L114.43-6L120.38-6.29L120.38-8.38" fill="#ee32af" stroke="none" stroke-width="none" transform="translate(-64.92001342773438,6.256322875976558)" style="transform:matrix(1, 0, 0, 1, -64.92, 6.25632);fill:rgb(238, 50, 175);animation-play-state:paused" ></path></g>
<g class="path" style="transform-origin:62.21px 0.136323px;animation-timing-function:linear;animation-play-state:paused;animation-name:fade-bd7f9eeb-92e8-4426-bce2-21b3f840a87c;animation-iteration-count:infinite;animation-fill-mode:forwards;animation-duration:1.23457s" ><path d="M124.13 0L124.13-12.02L125.47-12.02L125.40-11.18L125.40-11.18Q126.53-12.24 128.35-12.24L128.35-12.24L128.35-12.24Q129-12.24 130.13-12.02L130.13-12.02L129.77-10.80L129.77-10.80Q129-11.04 128.16-11.04L128.16-11.04L128.16-11.04Q127.06-11.04 126.26-10.63L126.26-10.63L126.26-10.63Q125.47-10.22 125.47-9.41L125.47-9.41L125.47 0L124.13 0" fill="#ee32af" stroke="none" stroke-width="none" transform="translate(-64.92001342773438,6.256322875976558)" style="transform:matrix(1, 0, 0, 1, -64.92, 6.25632);fill:rgb(238, 50, 175);animation-play-state:paused" ></path></g></g></g></g></svg>